999
FreeCAD v0.19 21911 +2545 (Git)
  0
SECTION
  2
HEADER
  9
$ACADVER
  1
AC1014
  9
$ACADMAINTVER
 70
     9
  9
$DWGCODEPAGE
  3
ANSI_1252
  9
$TEXTSTYLE
  7
STANDARD
  9
$DIMSTYLE
  2
STANDARD
  9
$DIMTXSTY
  7
STANDARD
  9
$CMLSTYLE
  2
STANDARD
  9
$PEXTMAX
 10
50
 20
50
 30
50
  9
$PEXTMIN
 10
0
 20
0
 30
0
  9
$HANDSEED
  5
FFFF
  0
ENDSEC
  0
SECTION
  2
CLASSES
  0
CLASS
  1
ACDBDICTIONARYWDFLT
  2
AcDbDictionaryWithDefault
  3
ObjectDBX Classes
 90
        0
280
     0
281
     0
  0
CLASS
  1
XRECORD
  2
AcDbXrecord
  3
ObjectDBX Classes
 90
        0
280
     0
281
     0
  0
CLASS
  1
LWPOLYLINE
  2
AcDbPolyline
  3
ObjectDBX Classes
 90
        0
280
     0
281
     1
  0
ENDSEC
  0
SECTION
  2
TABLES
  0
TABLE
  2
VPORT
  5
20
330
0
100
AcDbSymbolTable
 70
     1
  0
VPORT
  5
21
330
20
100
AcDbSymbolTableRecord
100
AcDbViewportTableRecord
  2
*ACTIVE
 70
     0
  0
ENDTAB
  0
TABLE
  2
LTYPE
  5
22
330
0
100
AcDbSymbolTable
 70
     1
  0
LTYPE
  5
23
330
21
100
AcDbSymbolTableRecord
100
AcDbLinetypeTableRecord
  2
BYBLOCK
 70
     0
  3

 72
    65
 73
     0
 40
0.0
  0
LTYPE
  5
24
330
21
100
AcDbSymbolTableRecord
100
AcDbLinetypeTableRecord
  2
BYLAYER
 70
     0
  3

 72
    65
 73
     0
 40
0.0
  0
LTYPE
  5
25
330
21
100
AcDbSymbolTableRecord
100
AcDbLinetypeTableRecord
  2
CONTINUOUS
 70
     0
  3
Solid line
 72
    65
 73
     0
 40
0.0
  0
ENDTAB
  0
TABLE
  2
LAYER
  5
A40
330
0
100
AcDbSymbolTable
 70
3
  0
LAYER
  5
A41
330
A40
100
AcDbSymbolTableRecord
100
AcDbLayerTableRecord
  2
0
 70
   0
 62
   7
  6
CONTINUOUS
  0
LAYER
  5
A42
330
A40
100
AcDbSymbolTableRecord
100
AcDbLayerTableRecord
  2
none
 70
    0
 62
    7
  6
CONTINUOUS
  0
LAYER
  5
A43
330
A40
100
AcDbSymbolTableRecord
100
AcDbLayerTableRecord
  2
Shape2DView
 70
    0
 62
    7
  6
CONTINUOUS
  0
ENDTAB
  0
TABLE
  2
STYLE
  5
70
330
0
100
AcDbSymbolTable
 70
     2
  0
STYLE
  5
71
330
70
100
AcDbSymbolTableRecord
100
AcDbTextStyleTableRecord
  2
STANDARD
 70
     0
 40
0.0
 41
1.0
 50
0.0
 71
     0
 42
2.5
  3
arial.ttf
  4

  0
STYLE
  5
72
330
70
100
AcDbSymbolTableRecord
100
AcDbTextStyleTableRecord
  2
ANNOTATIVE
 70
     0
 40
0.0
 41
1.0
 50
0.0
 71
     0
 42
2.5
  3
arial.ttf
  4

  0
ENDTAB
  0
TABLE
  2
VIEW
  5
73
330
0
100
AcDbSymbolTable
 70
     0
  0
ENDTAB
  0
TABLE
  2
UCS
  5
74
330
0
100
AcDbSymbolTable
 70
     0
  0
ENDTAB
  0
TABLE
  2
APPID
  5
75
330
0
100
AcDbSymbolTable
 70
     2
  0
APPID
  5
76
330
75
100
AcDbSymbolTableRecord
100
AcDbRegAppTableRecord
  2
ACAD
 70
     0
  0
APPID
  5
77
330
75
100
AcDbSymbolTableRecord
100
AcDbRegAppTableRecord
  2
ACADANNOTATIVE
 70
     0
  0
ENDTAB
  0
TABLE
  2
DIMSTYLE
  5
78
330
0
100
AcDbSymbolTable
 70
     2
  0
DIMSTYLE
105
79
330
78
100
AcDbSymbolTableRecord
100
AcDbDimStyleTableRecord
  2
STANDARD
 70
     0
  3

  4

  5

  6

  7

 40
0.0
 41
2.5
 42
0.625
 43
3.75
 44
1.25
 45
0.0
 46
0.0
 47
0.0
 48
0.0
140
2.5
141
2.5
142
0.0
143
0.03937007874016
144
1.0
145
0.0
146
1.0
147
0.625
 71
     0
 72
     0
 73
     0
 74
     0
 75
     0
 76
     0
 77
     1
 78
     8
170
     0
171
     3
172
     1
173
     0
174
     0
175
     0
176
     0
177
     0
178
     0
270
     2
271
     2
272
     2
273
     2
274
     3
340
71
275
     0
280
     0
281
     0
282
     0
283
     0
284
     8
285
     0
286
     0
287
     3
288
     0
  0
ENDTAB
  0
TABLE
  2
BLOCK_RECORD
  5
A01
330
0
100
AcDbSymbolTable
  70
5
  0
BLOCK_RECORD
  5
A02
330
A01
100
AcDbSymbolTableRecord
100
AcDbBlockTableRecord
  2
*MODEL_SPACE
  0
BLOCK_RECORD
  5
A03
330
A01
100
AcDbSymbolTableRecord
100
AcDbBlockTableRecord
  2
*PAPER_SPACE
  0
ENDTAB
  0
ENDSEC
  0
SECTION
  2
BLOCKS
  0
BLOCK
  5
A04
330
A02
100
AcDbEntity
  8
0
100
AcDbBlockBegin
  2
*MODEL_SPACE
 70
   0
 10
0
 20
0
 30
0
  3
*MODEL_SPACE
  1
 
  0
ENDBLK
  5
A05
330
A02
100
AcDbEntity
  8
0
100
AcDbBlockEnd
  0
BLOCK
  5
A06
330
A03
100
AcDbEntity
 67
1
  8
0
100
AcDbBlockBegin
  2
*PAPER_SPACE
 70
   0
 10
0
 20
0
 30
0
  3
*PAPER_SPACE
  1
 
  0
ENDBLK
  5
A07
330
A03
100
AcDbEntity
 67
    1
  8
0
100
AcDbBlockEnd
  0
ENDSEC
  0
SECTION
  2
ENTITIES
  0
ARC
  5
A08
330
A02
100
AcDbEntity
  8
Shape2DView
100
AcDbCircle
 10
94.909
 20
-34.544
 30
0
 40
34.544
100
AcDbArc
 50
177.643
 51
-160.294
  0
ARC
  5
A09
330
A02
100
AcDbEntity
  8
Shape2DView
100
AcDbCircle
 10
57.3967
 20
-33
 30
0
 40
3
100
AcDbArc
 50
-2.35701
 51
90
  0
SPLINE
  5
A0A
330
A02
100
AcDbEntity
  8
Shape2DView
100
AcDbSpline
210
0
220
0
230
1
 70
8
 71
3
 72
11
 73
7
 74
0
 40
0
 40
0
 40
0
 40
0
 40
0.5
 40
0.5
 40
0.5
 40
1
 40
1
 40
1
 40
1
 10
62.3879
 20
-46.192
 30
0
 10
62.5545
 20
-46.6523
 30
0
 10
62.6091
 20
-47.1812
 30
0
 10
62.5238
 20
-47.6907
 30
0
 10
62.4413
 20
-48.2006
 30
0
 10
62.2201
 20
-48.6841
 30
0
 10
61.9148
 20
-49.0668
 30
0
  0
LINE
  5
A0B
330
A02
100
AcDbEntity
  8
Shape2DView
100
AcDbLine
 10
52.5
 20
-30
 30
0
 11
57.3967
 21
-30
 31
0
  0
ARC
  5
A0C
330
A02
100
AcDbEntity
  8
Shape2DView
100
AcDbCircle
 10
0
 20
0
 30
0
 40
79
100
AcDbArc
 50
-41.6036
 51
-38.3964
  0
LINE
  5
A0D
330
A02
100
AcDbEntity
  8
Shape2DView
100
AcDbLine
 10
52.5
 20
30
 30
0
 11
52.5
 21
-30
 31
0
  0
SPLINE
  5
A0E
330
A02
100
AcDbEntity
  8
Shape2DView
100
AcDbSpline
210
0
220
0
230
1
 70
8
 71
3
 72
11
 73
7
 74
0
 40
0
 40
0
 40
0
 40
0
 40
0.5
 40
0.5
 40
0.5
 40
1
 40
1
 40
1
 40
1
 10
59.0728
 20
-52.4538
 30
0
 10
58.7489
 20
-52.8209
 30
0
 10
58.3112
 20
-53.1227
 30
0
 10
57.8233
 20
-53.2925
 30
0
 10
57.3364
 20
-53.465
 30
0
 10
56.8061
 20
-53.503
 30
0
 10
56.3238
 20
-53.419
 30
0
  0
LINE
  5
A0F
330
A02
100
AcDbEntity
  8
Shape2DView
100
AcDbLine
 10
57.3967
 20
30
 30
0
 11
52.5
 21
30
 31
0
  0
ARC
  5
A10
330
A02
100
AcDbEntity
  8
Shape2DView
100
AcDbCircle
 10
50.5
 20
-87.4686
 30
0
 40
34.544
100
AcDbArc
 50
80.2942
 51
159.706
  0
ARC
  5
A11
330
A02
100
AcDbEntity
  8
Shape2DView
100
AcDbCircle
 10
57.3967
 20
33
 30
0
 40
3
100
AcDbArc
 50
-90
 51
2.35701
  0
SPLINE
  5
A12
330
A02
100
AcDbEntity
  8
Shape2DView
100
AcDbSpline
210
0
220
0
230
1
 70
8
 71
3
 72
11
 73
7
 74
0
 40
0
 40
0
 40
0
 40
0
 40
0.5
 40
0.5
 40
0.5
 40
1
 40
1
 40
1
 40
1
 10
18.1003
 20
-75.4873
 30
0
 10
17.9319
 20
-75.947
 30
0
 10
17.6338
 20
-76.3872
 30
0
 10
17.241
 20
-76.7227
 30
0
 10
16.8501
 20
-77.0603
 30
0
 10
16.3698
 20
-77.2885
 30
0
 10
15.89
 20
-77.3855
 30
0
  0
ARC
  5
A13
330
A02
100
AcDbEntity
  8
Shape2DView
100
AcDbCircle
 10
94.909
 20
34.544
 30
0
 40
34.544
100
AcDbArc
 50
160.294
 51
-177.643
  0
ARC
  5
A14
330
A02
100
AcDbEntity
  8
Shape2DView
100
AcDbCircle
 10
0
 20
0
 30
0
 40
79
100
AcDbArc
 50
-81.6036
 51
-78.3964
  0
SPLINE
  5
A15
330
A02
100
AcDbEntity
  8
Shape2DView
100
AcDbSpline
210
0
220
0
230
1
 70
8
 71
3
 72
11
 73
7
 74
0
 40
0
 40
0
 40
0
 40
0
 40
0.5
 40
0.5
 40
0.5
 40
1
 40
1
 40
1
 40
1
 10
61.9148
 20
49.0668
 30
0
 10
62.2201
 20
48.6841
 30
0
 10
62.4413
 20
48.2006
 30
0
 10
62.5238
 20
47.6907
 30
0
 10
62.6091
 20
47.1812
 30
0
 10
62.5545
 20
46.6523
 30
0
 10
62.3879
 20
46.192
 30
0
  0
SPLINE
  5
A16
330
A02
100
AcDbEntity
  8
Shape2DView
100
AcDbSpline
210
0
220
0
230
1
 70
8
 71
3
 72
11
 73
7
 74
0
 40
0
 40
0
 40
0
 40
0
 40
0.5
 40
0.5
 40
0.5
 40
1
 40
1
 40
1
 40
1
 10
11.5357
 20
-78.1532
 30
0
 10
11.0516
 20
-78.2262
 30
0
 10
10.5223
 20
-78.1761
 30
0
 10
10.0394
 20
-77.9926
 30
0
 10
9.55558
 20
-77.8116
 30
0
 10
9.12488
 20
-77.4999
 30
0
 10
8.80944
 20
-77.1255
 30
0
  0
ARC
  5
A17
330
A02
100
AcDbEntity
  8
Shape2DView
100
AcDbCircle
 10
0
 20
0
 30
0
 40
79
100
AcDbArc
 50
38.3964
 51
41.6036
  0
ARC
  5
A18
330
A02
100
AcDbEntity
  8
Shape2DView
100
AcDbCircle
 10
-17.5385
 20
-99.4656
 30
0
 40
34.544
100
AcDbArc
 50
40.2942
 51
119.706
  0
SPLINE
  5
A19
330
A02
100
AcDbEntity
  8
Shape2DView
100
AcDbSpline
210
0
220
0
230
1
 70
8
 71
3
 72
11
 73
7
 74
0
 40
0
 40
0
 40
0
 40
0
 40
0.5
 40
0.5
 40
0.5
 40
1
 40
1
 40
1
 40
1
 10
56.3238
 20
53.419
 30
0
 10
56.8061
 20
53.503
 30
0
 10
57.3364
 20
53.465
 30
0
 10
57.8233
 20
53.2925
 30
0
 10
58.3112
 20
53.1227
 30
0
 10
58.7489
 20
52.8209
 30
0
 10
59.0728
 20
52.4538
 30
0
  0
SPLINE
  5
A1A
330
A02
100
AcDbEntity
  8
Shape2DView
100
AcDbSpline
210
0
220
0
230
1
 70
8
 71
3
 72
11
 73
7
 74
0
 40
0
 40
0
 40
0
 40
0
 40
0.5
 40
0.5
 40
0.5
 40
1
 40
1
 40
1
 40
1
 10
-34.6566
 20
-69.4613
 30
0
 10
-35.0811
 20
-69.7052
 30
0
 10
-35.5925
 20
-69.8508
 30
0
 10
-36.109
 20
-69.8553
 30
0
 10
-36.6255
 20
-69.8626
 30
0
 10
-37.1401
 20
-69.7287
 30
0
 10
-37.57
 20
-69.4946
 30
0
  0
ARC
  5
A1B
330
A02
100
AcDbEntity
  8
Shape2DView
100
AcDbCircle
 10
50.5
 20
87.4686
 30
0
 40
34.544
100
AcDbArc
 50
-159.706
 51
-80.2942
  0
ARC
  5
A1C
330
A02
100
AcDbEntity
  8
Shape2DView
100
AcDbCircle
 10
0
 20
0
 30
0
 40
79
100
AcDbArc
 50
-121.604
 51
-118.396
  0
SPLINE
  5
A1D
330
A02
100
AcDbEntity
  8
Shape2DView
100
AcDbSpline
210
0
220
0
230
1
 70
8
 71
3
 72
11
 73
7
 74
0
 40
0
 40
0
 40
0
 40
0
 40
0.5
 40
0.5
 40
0.5
 40
1
 40
1
 40
1
 40
1
 10
15.89
 20
77.3855
 30
0
 10
16.3698
 20
77.2885
 30
0
 10
16.8501
 20
77.0603
 30
0
 10
17.241
 20
76.7227
 30
0
 10
17.6338
 20
76.3872
 30
0
 10
17.9319
 20
75.947
 30
0
 10
18.1003
 20
75.4873
 30
0
  0
SPLINE
  5
A1E
330
A02
100
AcDbEntity
  8
Shape2DView
100
AcDbSpline
210
0
220
0
230
1
 70
8
 71
3
 72
11
 73
7
 74
0
 40
0
 40
0
 40
0
 40
0
 40
0.5
 40
0.5
 40
0.5
 40
1
 40
1
 40
1
 40
1
 10
-41.3991
 20
-67.2839
 30
0
 10
-41.8168
 20
-67.0286
 30
0
 10
-42.1901
 20
-66.65
 30
0
 10
-42.442
 20
-66.199
 30
0
 10
-42.6964
 20
-65.7494
 30
0
 10
-42.8259
 20
-65.2337
 30
0
 10
-42.8269
 20
-64.7442
 30
0
  0
ARC
  5
A1F
330
A02
100
AcDbEntity
  8
Shape2DView
100
AcDbCircle
 10
0
 20
0
 30
0
 40
79
100
AcDbArc
 50
78.3964
 51
81.6036
  0
ARC
  5
A20
330
A02
100
AcDbEntity
  8
Shape2DView
100
AcDbCircle
 10
-77.3705
 20
-64.9215
 30
0
 40
34.544
100
AcDbArc
 50
0.294194
 51
79.7058
  0
SPLINE
  5
A21
330
A02
100
AcDbEntity
  8
Shape2DView
100
AcDbSpline
210
0
220
0
230
1
 70
8
 71
3
 72
11
 73
7
 74
0
 40
0
 40
0
 40
0
 40
0
 40
0.5
 40
0.5
 40
0.5
 40
1
 40
1
 40
1
 40
1
 10
8.80944
 20
77.1255
 30
0
 10
9.12488
 20
77.4999
 30
0
 10
9.55558
 20
77.8116
 30
0
 10
10.0394
 20
77.9926
 30
0
 10
10.5223
 20
78.1761
 30
0
 10
11.0516
 20
78.2262
 30
0
 10
11.5357
 20
78.1532
 30
0
  0
SPLINE
  5
A22
330
A02
100
AcDbEntity
  8
Shape2DView
100
AcDbSpline
210
0
220
0
230
1
 70
8
 71
3
 72
11
 73
7
 74
0
 40
0
 40
0
 40
0
 40
0
 40
0.5
 40
0.5
 40
0.5
 40
1
 40
1
 40
1
 40
1
 10
-71.1974
 20
-30.9336
 30
0
 10
-71.6793
 20
-30.8476
 30
0
 10
-72.1647
 20
-30.6305
 30
0
 10
-72.5633
 20
-30.3019
 30
0
 10
-72.9636
 20
-29.9754
 30
0
 10
-73.2717
 20
-29.5421
 30
0
 10
-73.4505
 20
-29.0864
 30
0
  0
ARC
  5
A23
330
A02
100
AcDbEntity
  8
Shape2DView
100
AcDbCircle
 10
-17.5385
 20
99.4656
 30
0
 40
34.544
100
AcDbArc
 50
-119.706
 51
-40.2942
  0
ARC
  5
A24
330
A02
100
AcDbEntity
  8
Shape2DView
100
AcDbCircle
 10
0
 20
0
 30
0
 40
79
100
AcDbArc
 50
-161.604
 51
-158.396
  0
SPLINE
  5
A25
330
A02
100
AcDbEntity
  8
Shape2DView
100
AcDbSpline
210
0
220
0
230
1
 70
8
 71
3
 72
11
 73
7
 74
0
 40
0
 40
0
 40
0
 40
0
 40
0.5
 40
0.5
 40
0.5
 40
1
 40
1
 40
1
 40
1
 10
-37.57
 20
69.4946
 30
0
 10
-37.1401
 20
69.7287
 30
0
 10
-36.6255
 20
69.8626
 30
0
 10
-36.109
 20
69.8553
 30
0
 10
-35.5925
 20
69.8508
 30
0
 10
-35.0811
 20
69.7052
 30
0
 10
-34.6566
 20
69.4613
 30
0
  0
SPLINE
  5
A26
330
A02
100
AcDbEntity
  8
Shape2DView
100
AcDbSpline
210
0
220
0
230
1
 70
8
 71
3
 72
11
 73
7
 74
0
 40
0
 40
0
 40
0
 40
0
 40
0.5
 40
0.5
 40
0.5
 40
1
 40
1
 40
1
 40
1
 10
-74.9628
 20
-24.9316
 30
0
 10
-75.1187
 20
-24.4676
 30
0
 10
-75.1612
 20
-23.9376
 30
0
 10
-75.0643
 20
-23.4302
 30
0
 10
-74.9702
 20
-22.9223
 30
0
 10
-74.738
 20
-22.444
 30
0
 10
-74.4241
 20
-22.0683
 30
0
  0
ARC
  5
A27
330
A02
100
AcDbEntity
  8
Shape2DView
100
AcDbCircle
 10
0
 20
0
 30
0
 40
79
100
AcDbArc
 50
118.396
 51
121.604
  0
ARC
  5
A28
330
A02
100
AcDbEntity
  8
Shape2DView
100
AcDbCircle
 10
-101
 20
2.132e-14
 30
0
 40
34.544
100
AcDbArc
 50
-39.7058
 51
39.7058
  0
SPLINE
  5
A29
330
A02
100
AcDbEntity
  8
Shape2DView
100
AcDbSpline
210
0
220
0
230
1
 70
8
 71
3
 72
11
 73
7
 74
0
 40
0
 40
0
 40
0
 40
0
 40
0.5
 40
0.5
 40
0.5
 40
1
 40
1
 40
1
 40
1
 10
-41.3991
 20
67.2839
 30
0
 10
-41.8168
 20
67.0286
 30
0
 10
-42.1901
 20
66.65
 30
0
 10
-42.442
 20
66.199
 30
0
 10
-42.6964
 20
65.7494
 30
0
 10
-42.8259
 20
65.2337
 30
0
 10
-42.8269
 20
64.7442
 30
0
  0
SPLINE
  5
A2A
330
A02
100
AcDbEntity
  8
Shape2DView
100
AcDbSpline
210
0
220
0
230
1
 70
8
 71
3
 72
11
 73
7
 74
0
 40
0
 40
0
 40
0
 40
0
 40
0.5
 40
0.5
 40
0.5
 40
1
 40
1
 40
1
 40
1
 10
-74.4241
 20
22.0683
 30
0
 10
-74.738
 20
22.444
 30
0
 10
-74.9702
 20
22.9223
 30
0
 10
-75.0643
 20
23.4302
 30
0
 10
-75.1612
 20
23.9376
 30
0
 10
-75.1187
 20
24.4676
 30
0
 10
-74.9628
 20
24.9316
 30
0
  0
ARC
  5
A2B
330
A02
100
AcDbEntity
  8
Shape2DView
100
AcDbCircle
 10
-77.3705
 20
64.9215
 30
0
 40
34.544
100
AcDbArc
 50
-79.7058
 51
-0.294194
  0
ARC
  5
A2C
330
A02
100
AcDbEntity
  8
Shape2DView
100
AcDbCircle
 10
0
 20
0
 30
0
 40
79
100
AcDbArc
 50
158.396
 51
161.604
  0
SPLINE
  5
A2D
330
A02
100
AcDbEntity
  8
Shape2DView
100
AcDbSpline
210
0
220
0
230
1
 70
8
 71
3
 72
11
 73
7
 74
0
 40
0
 40
0
 40
0
 40
0
 40
0.5
 40
0.5
 40
0.5
 40
1
 40
1
 40
1
 40
1
 10
-71.1974
 20
30.9336
 30
0
 10
-71.6793
 20
30.8476
 30
0
 10
-72.1647
 20
30.6305
 30
0
 10
-72.5633
 20
30.3019
 30
0
 10
-72.9636
 20
29.9754
 30
0
 10
-73.2717
 20
29.5421
 30
0
 10
-73.4505
 20
29.0864
 30
0
  0
CIRCLE
  5
A2E
330
A02
100
AcDbEntity
  8
Shape2DView
100
AcDbCircle
 10
-35
 20
-35
 40
6.5
  0
LINE
  5
A2F
330
A02
100
AcDbEntity
  8
Shape2DView
100
AcDbLine
 10
-44
 20
-13.5
 30
0
 11
-36.3318
 21
-13.5
 31
0
  0
ARC
  5
A30
330
A02
100
AcDbEntity
  8
Shape2DView
100
AcDbCircle
 10
-44
 20
-11.5
 30
0
 40
2
100
AcDbArc
 50
180
 51
-90
  0
ARC
  5
A31
330
A02
100
AcDbEntity
  8
Shape2DView
100
AcDbCircle
 10
-36.3318
 20
-15.5
 30
0
 40
2
100
AcDbArc
 50
23.1042
 51
90
  0
LINE
  5
A32
330
A02
100
AcDbEntity
  8
Shape2DView
100
AcDbLine
 10
-46
 20
11.5
 30
0
 11
-46
 21
-11.5
 31
0
  0
ARC
  5
A33
330
A02
100
AcDbEntity
  8
Shape2DView
100
AcDbCircle
 10
0
 20
0
 30
0
 40
37.5
100
AcDbArc
 50
-156.896
 51
156.896
  0
ARC
  5
A34
330
A02
100
AcDbEntity
  8
Shape2DView
100
AcDbCircle
 10
-44
 20
11.5
 30
0
 40
2
100
AcDbArc
 50
90
 51
180
  0
ARC
  5
A35
330
A02
100
AcDbEntity
  8
Shape2DView
100
AcDbCircle
 10
-36.3318
 20
15.5
 30
0
 40
2
100
AcDbArc
 50
-90
 51
-23.1042
  0
LINE
  5
A36
330
A02
100
AcDbEntity
  8
Shape2DView
100
AcDbLine
 10
-36.3318
 20
13.5
 30
0
 11
-44
 21
13.5
 31
0
  0
CIRCLE
  5
A37
330
A02
100
AcDbEntity
  8
Shape2DView
100
AcDbCircle
 10
35
 20
-35
 40
6.5
  0
CIRCLE
  5
A38
330
A02
100
AcDbEntity
  8
Shape2DView
100
AcDbCircle
 10
-35
 20
35
 40
6.5
  0
CIRCLE
  5
A39
330
A02
100
AcDbEntity
  8
Shape2DView
100
AcDbCircle
 10
35
 20
35
 40
6.5
  0
LINE
  5
A3A
330
A02
100
AcDbEntity
  8
Shape2DView
100
AcDbLine
 10
8.25
 20
52.8123
 30
0
 11
13.75
 21
52.8123
 31
0
  0
ARC
  5
A3B
330
A02
100
AcDbEntity
  8
Shape2DView
100
AcDbCircle
 10
13.75
 20
56.4123
 30
0
 40
3.6
100
AcDbArc
 50
-90
 51
27.5318
  0
LINE
  5
A3C
330
A02
100
AcDbEntity
  8
Shape2DView
100
AcDbLine
 10
16.9423
 20
58.0764
 30
0
 11
14.4024
 21
62.949
 31
0
  0
ARC
  5
A3D
330
A02
100
AcDbEntity
  8
Shape2DView
100
AcDbCircle
 10
11
 20
61.1754
 30
0
 40
3.83686
100
AcDbArc
 50
27.5318
 51
152.468
  0
LINE
  5
A3E
330
A02
100
AcDbEntity
  8
Shape2DView
100
AcDbLine
 10
7.59765
 20
62.949
 30
0
 11
5.05768
 21
58.0764
 31
0
  0
ARC
  5
A3F
330
A02
100
AcDbEntity
  8
Shape2DView
100
AcDbCircle
 10
8.25
 20
56.4123
 30
0
 40
3.6
100
AcDbArc
 50
152.468
 51
-90
  0
ENDSEC
  0
SECTION
  2
OBJECTS
  0
DICTIONARY
  5
F000
330
0
100
AcDbDictionary
  3
ACAD_GROUP
350
F001
  0
DICTIONARY
  5
F001
330
F000
100
AcDbDictionary
  0
ENDSEC
  0
EOF