<?xml version="1.0" encoding="UTF-8" standalone="no"?>
<svg
   xmlns:dc="http://purl.org/dc/elements/1.1/"
   xmlns:cc="http://creativecommons.org/ns#"
   xmlns:rdf="http://www.w3.org/1999/02/22-rdf-syntax-ns#"
   xmlns:svg="http://www.w3.org/2000/svg"
   xmlns="http://www.w3.org/2000/svg"
   xmlns:sodipodi="http://sodipodi.sourceforge.net/DTD/sodipodi-0.dtd"
   xmlns:inkscape="http://www.inkscape.org/namespaces/inkscape"
   width="113.42493mm"
   height="39.404835mm"
   viewBox="0 0 113.42493 39.404835"
   version="1.1"
   id="svg3944"
   sodipodi:docname="WindkitLogo.svg"
   inkscape:version="1.0.2 (e86c870879, 2021-01-15)">
  <sodipodi:namedview
     pagecolor="#ffffff"
     bordercolor="#666666"
     borderopacity="1"
     objecttolerance="10"
     gridtolerance="10"
     guidetolerance="10"
     inkscape:pageopacity="0"
     inkscape:pageshadow="2"
     inkscape:window-width="1920"
     inkscape:window-height="1024"
     id="namedview11"
     showgrid="false"
     fit-margin-top="0"
     fit-margin-left="0"
     fit-margin-right="0"
     fit-margin-bottom="0"
     inkscape:zoom="1.2776249"
     inkscape:cx="108.77402"
     inkscape:cy="98.242422"
     inkscape:window-x="0"
     inkscape:window-y="28"
     inkscape:window-maximized="1"
     inkscape:current-layer="svg3944" />
  <defs
     id="defs3938" />
  <metadata
     id="metadata3941">
    <rdf:RDF>
      <cc:Work
         rdf:about="">
        <dc:format>image/svg+xml</dc:format>
        <dc:type
           rdf:resource="http://purl.org/dc/dcmitype/StillImage" />
        <dc:title></dc:title>
      </cc:Work>
    </rdf:RDF>
  </metadata>
  <g
     id="layer1"
     transform="matrix(1.6775142,0,0,1.6775142,-120.82446,-228.84927)">
    <rect
       style="display:inline;fill:#000000;fill-opacity:1;stroke:none;stroke-width:0.542888;stroke-linecap:round;stroke-linejoin:round;stroke-miterlimit:4;stroke-dasharray:6.51466, 0.542888;stroke-dashoffset:0;stroke-opacity:1"
       id="rect2109-5"
       width="67.614883"
       height="23.490015"
       x="72.025894"
       y="136.42166" />
    <text
       xml:space="preserve"
       style="font-size:4.11869px;line-height:1.25;font-family:'Exo 2';-inkscape-font-specification:'Exo 2, ';display:inline;fill:#ffffff;fill-opacity:1;stroke-width:0.102968"
       x="77.023453"
       y="156.41106"
       id="text979-9-4"><tspan
         id="tspan977-3-5"
         x="77.023453"
         y="156.41106"
         style="font-style:italic;font-variant:normal;font-weight:normal;font-stretch:normal;font-family:'Exo 2';-inkscape-font-specification:'Exo 2 Italic';fill:#ffffff;fill-opacity:1;stroke-width:0.102968">the hackable wind turbine</tspan></text>
    <g
       id="g9891-5-9-9"
       style="display:inline;fill:#ffffff"
       transform="translate(156.30775,94.535227)">
      <path
         d="m -62.115597,45.055026 -0.180351,5.29e-4 -0.176218,0.0067 -0.171566,0.01706 -0.165365,0.02479 -0.159678,0.03411 -0.152964,0.04083 -0.145211,0.04806 -0.137459,0.05529 -0.128675,0.06046 -0.118854,0.06563 -0.109037,0.0708 -0.09922,0.07596 -0.08837,0.08062 -0.077,0.08371 -0.06563,0.08372 -0.05426,0.0832 -0.04238,0.08372 -0.03049,0.08475 -0.0181,0.08423 -0.0052,0.07648 0.0062,0.06615 0.01913,0.05374 0.03101,0.04961 0.04289,0.04806 0.01498,0.01188 c 0.169537,-0.25041 0.400873,-0.46324 0.675928,-0.598929 l 0.09095,-0.04238 0.0987,-0.03721 0.103354,-0.03307 0.109553,-0.02842 0.113689,-0.02273 0.120407,-0.01497 0.126606,-0.0083 0.131259,-0.0021 0.137459,0.0067 0.140044,0.01241 h 0.0021 c 0.429702,0.05106 0.843621,0.164063 1.246952,0.289907 h 0.0021 l 0.160713,0.05219 0.322461,0.111622 0.314711,0.116787 0.0021,-5.29e-4 c 0.07386,0.02831 0.146087,0.06076 0.219625,0.08992 l 0.08475,-0.0088 0.159679,-0.0155 0.152963,-0.01394 0.145727,-0.01344 0.137459,-0.01188 0.128675,-0.01188 0.119372,-0.0098 0.109554,-0.0098 0.09922,-0.0067 0.08888,-0.0062 0.07751,-0.0088 0.06615,-0.0062 0.05478,-0.0083 0.04238,-0.0062 0.03101,-0.0047 0.0186,-0.0036 0.0057,-5.29e-4 5.29e-4,-0.0041 -0.0062,-0.0031 -0.0186,-0.01241 -0.03049,-0.01963 -0.04289,-0.02635 -0.05478,-0.03307 -0.06666,-0.03721 -0.07803,-0.04083 -0.0894,-0.04496 -0.09974,-0.04858 -0.11007,-0.05219 -0.119374,-0.0553 -0.129191,-0.05633 -0.137975,-0.05736 -0.146246,-0.05943 -0.153477,-0.05995 -0.160197,-0.05891 -0.166399,-0.05788 -0.172082,-0.05633 -0.176216,-0.05426 -0.180869,-0.05167 -0.183451,-0.04806 -0.186034,-0.04393 -0.187587,-0.03927 -0.188619,-0.03514 -0.188619,-0.02946 -0.187068,-0.02326 -0.186034,-0.01601 z m 17.747236,0.08216 -0.286805,2.023134 c -0.05716,0.388662 -0.08633,0.732382 -0.107487,1.075385 l 1.37356,0.144696 0.453718,-3.243215 z m 4.013192,0 -1.091924,7.799006 c 0.124944,-0.04249 0.12774,-0.04097 0.265101,-0.0894 0.271751,-0.0958 0.553279,-0.198538 0.782897,-0.290938 0.151048,-0.06076 0.265264,-0.115023 0.349851,-0.158644 0.171434,-0.518205 0.287562,-1.007865 0.368451,-1.560629 l 0.75861,-5.699395 z m 9.173083,0.100769 c -0.286657,0 -0.42156,0.151889 -0.455268,0.42168 l -0.134877,0.944128 c -0.03372,0.30352 0.117644,0.472324 0.421164,0.472324 h 0.657839 c 0.303522,0 0.421738,-0.117967 0.472323,-0.404628 l 0.117822,-0.96118 c 0.05059,-0.269791 -0.101111,-0.472324 -0.404625,-0.472324 z m -31.37948,0.683681 -0.117821,0.0016 -0.109038,0.0083 -0.104386,0.01394 -0.0987,0.01757 -0.09405,0.02532 -0.08785,0.02842 -0.08372,0.03204 -0.07752,0.03514 -0.0036,0.0026 c -0.22062,0.109752 -0.410324,0.282591 -0.553456,0.486794 l 0.03773,0.01291 0.09974,0.02273 0.110069,0.01707 0.118856,0.01138 0.129191,0.0052 0.137459,0.0011 0.145211,-0.0041 0.15348,-0.0072 0.159679,-0.01188 0.165883,-0.01344 0.171566,-0.01551 0.176215,-0.01707 0.180351,-0.01601 0.182935,-0.0181 0.185518,-0.0186 0.187585,-0.0186 0.188102,-0.02016 0.188103,-0.01963 0.187585,-0.02066 0.18552,-0.02066 0.182933,-0.02119 0.03101,-0.0031 -0.04651,-0.01757 -0.318328,-0.110072 -0.158647,-0.05064 c -0.396065,-0.123582 -0.795231,-0.230058 -1.198893,-0.278022 l -0.128672,-0.01344 z m 35.594727,0.378788 -0.296106,2.132168 1.416968,-0.0031 0.295587,-2.129068 z m -28.294396,2.225704 c -1.230935,0 -2.461824,0.691353 -3.962551,2.006595 l 0.0078,-0.118857 -1.091406,-0.03514 -0.183968,1.176674 1.238168,0.112654 0.01241,-0.08992 c 1.483863,-1.146619 2.495421,-1.837613 3.540869,-1.837613 0.775658,0 1.028901,0.337272 0.894003,1.416452 l -0.826307,5.783625 h 1.433505 l 0.876432,-6.138127 c 0.202345,-1.50073 -0.573069,-2.276345 -1.938898,-2.276345 z m 7.807274,0 c -2.192073,0 -3.423478,0.539821 -3.963066,4.215762 -0.455277,3.28811 0.320712,4.400764 1.99006,4.400764 1.393995,0 2.612663,-0.786429 3.506246,-1.659847 0.03366,-0.446434 0.03137,-0.871853 0.02479,-1.220597 -1.197324,1.092451 -2.113476,1.632976 -3.126425,1.632976 -1.112898,0 -1.264505,-0.674774 -0.944129,-3.035474 0.387829,-2.76538 0.843077,-3.153296 3.052011,-3.153296 0.438415,0 1.078876,0.0173 1.888258,0.03411 l -0.01704,0.128159 1.240751,-0.0031 0.147793,-1.211297 -1.124479,-0.118337 c -0.0027,0.06453 -0.0087,0.126923 -0.01085,0.192751 -0.876829,-0.118038 -1.837677,-0.20257 -2.66392,-0.20257 z m -32.273999,0.20257 1.51722,7.823811 c 0.0506,0.21921 0.2192,0.388091 0.45527,0.388091 h 0.84336 c 0.69134,0 1.33188,-0.236228 1.80402,-1.062466 0.37176,-0.581898 0.78696,-1.551088 1.08831,-2.491838 l -1.1591,-0.361736 c -0.27999,0.911961 -0.61551,1.710661 -0.89039,2.195733 -0.26979,0.472138 -0.50554,0.590661 -0.7922,0.590661 h -0.21911 l -1.16375,-7.082256 z m 5.86786,0 c -0.20235,0 -0.3709,0.134784 -0.40463,0.353983 -0.28752,1.725147 -0.48893,2.621233 -0.82424,3.656624 l 1.15755,0.360185 c 0.34842,-1.149236 0.63199,-2.508392 0.72864,-3.426663 h 0.21963 l 0.36277,3.215825 1.11052,-0.466638 -0.41134,-3.356385 c -0.0169,-0.185481 -0.16869,-0.336931 -0.37104,-0.336931 z m 5.95209,0 c -0.25293,1.50073 -0.57333,2.849536 -1.09606,4.181658 -0.43841,1.163478 -0.75841,1.686282 -1.19682,2.377633 -0.18549,0.303509 -0.40478,0.522965 -0.69143,0.522965 h -0.20257 l -0.37724,-3.079398 -1.11363,0.467672 0.37827,3.353281 c 0.0337,0.21921 0.20234,0.388091 0.45527,0.388091 h 0.94413 c 0.65762,0 1.02849,-0.269663 1.45004,-0.809252 0.38783,-0.489 0.96104,-1.517949 1.45004,-2.630847 0.64076,-1.467001 1.12972,-3.136183 1.50068,-4.771803 z m 3.574977,0 -1.146702,8.211902 h 1.416452 l 1.146699,-8.211902 z m 4.08037,0 -0.190686,1.346171 1.246952,0.04031 0.09043,-1.38648 z m 24.551473,0 c -0.507061,1.663795 -2.222826,2.979772 -4.120679,3.888653 -0.08269,0.05154 -0.19825,0.103227 -0.328663,0.157612 -0.01222,0.0055 -0.02394,0.01212 -0.03617,0.01757 2.59e-4,-7.93e-4 7.94e-4,-0.0016 0.0011,-0.0026 -0.03567,0.01468 -0.06294,0.02777 -0.101801,0.04341 -0.236601,0.09519 -0.520655,0.199925 -0.794784,0.296624 -0.213376,0.07523 -0.237668,0.08057 -0.411345,0.13901 l -0.182933,1.305862 1.57303,-0.590662 c 0.643027,-0.280416 1.316791,-0.576537 1.991092,-0.921906 l 1.669148,3.878316 h 1.534274 l -1.618507,-3.608565 c -0.151757,-0.320389 -0.303376,-0.64062 -0.488857,-0.944129 1.180346,-0.826251 2.225807,-1.956138 2.782258,-3.659208 z m 3.692797,0 -1.146699,8.211902 h 1.41645 l 1.146702,-8.211902 z m 6.298841,0 v 0.0011 l -1.650029,0.0021 -1.478979,0.08113 -0.134877,1.045414 h 1.472264 c 0.05341,-0.0016 0.114085,-0.0028 0.186034,-0.0036 0.164682,-0.0021 0.369421,-0.0044 0.570507,-0.0041 v 5.3e-4 c 0.402175,0.0011 0.787033,0.0057 0.787033,0.0057 v 0.0016 h 2.515092 l 0.168465,-1.129647 z m -18.717205,0.342614 h 5.29e-4 c 0.0038,-1.16e-4 0.0076,-1.16e-4 0.01138,0 0.102156,4.3e-5 0.184968,0.08285 0.185,0.185002 -3.2e-5,0.102156 -0.08284,0.18496 -0.185,0.185002 -0.102155,-4.2e-5 -0.184959,-0.08285 -0.185002,-0.185002 -1.64e-4,-0.09769 0.07563,-0.178686 0.173115,-0.185002 z m 17.345713,0.04703 c 0.102156,4.3e-5 0.18496,0.08285 0.185002,0.185002 -4.2e-5,0.102156 -0.08285,0.18496 -0.185002,0.185002 -0.102156,-4.2e-5 -0.18496,-0.08285 -0.185002,-0.185002 4.2e-5,-0.102155 0.08285,-0.184959 0.185002,-0.185002 z m 0.833025,0.02066 c 0.102155,4.3e-5 0.184957,0.08285 0.184999,0.185002 -4.2e-5,0.102156 -0.08284,0.18496 -0.184999,0.185002 -0.10236,2.46e-4 -0.185478,-0.08264 -0.185521,-0.185002 4.3e-5,-0.102359 0.08316,-0.185248 0.185521,-0.185002 z m -0.496613,1.01286 c -0.200281,0 -0.404428,1.6e-5 -0.566372,0.0021 -0.08077,0.0011 -0.151622,0.0037 -0.204639,0.0057 l -0.665075,4.690155 c -0.202346,1.41642 0.43825,2.24224 1.854665,2.24224 0.370967,0 1.298546,-0.0674 1.838132,-0.219109 l -0.05064,-1.096058 h -1.281575 c -0.792517,0 -1.028573,-0.269449 -0.910537,-1.06195 l 0.633036,-4.559927 c -0.100928,-7.94e-4 -0.316182,-0.0026 -0.646991,-0.0031 z m -16.894574,0.01188 -1.444874,0.0057 -0.515215,3.819922 -5.29e-4,5.29e-4 c 0.0068,0.197086 0.02053,0.624001 -5.29e-4,1.16427 l 0.0011,-0.0011 -0.0047,0.07338 c -0.0055,0.121592 -0.01325,0.238688 -0.02326,0.351914 l -0.09043,1.362192 h 1.130162 z m -16.219165,0.632002 c 0.102156,4.2e-5 0.184957,0.08285 0.185,0.185002 -4.3e-5,0.102155 -0.08284,0.184959 -0.185,0.185002 -0.102359,2.46e-4 -0.185478,-0.08264 -0.18552,-0.185002 4.2e-5,-0.10236 0.08316,-0.185248 0.18552,-0.185002 z m -0.834575,1.042831 -0.722953,5.102014 h 1.432986 l 0.68833,-4.974889 z m -11.485084,0.07907 c 0.10215,4.2e-5 0.18495,0.08284 0.185,0.184999 2.4e-4,0.102357 -0.0826,0.185478 -0.185,0.18552 -0.10257,2.47e-4 -0.18577,-0.08296 -0.18552,-0.18552 4e-5,-0.102359 0.0832,-0.185245 0.18552,-0.184999 z m -2.22002,0.172598 c 0.10215,4.2e-5 0.18496,0.08285 0.185,0.185002 -4e-5,0.102156 -0.0829,0.184959 -0.185,0.185002 -0.10216,-4.3e-5 -0.18496,-0.08285 -0.18501,-0.185002 5e-5,-0.102156 0.0829,-0.18496 0.18501,-0.185002 z m 33.567973,1.265555 c 0.102359,-2.46e-4 0.185478,0.08264 0.18552,0.185002 -4.2e-5,0.102359 -0.08316,0.185248 -0.18552,0.185002 -0.102156,-4.3e-5 -0.184957,-0.08285 -0.185,-0.185002 4.3e-5,-0.102156 0.08284,-0.18496 0.185,-0.185002 z m -31.159333,0.06821 h 5.3e-4 c 0.004,-1.17e-4 0.008,-1.17e-4 0.0114,0 0.10216,3.2e-5 0.18496,0.08284 0.185,0.184999 -4e-5,0.102156 -0.0828,0.18496 -0.185,0.185002 -0.10215,-4.2e-5 -0.18496,-0.08285 -0.185,-0.185002 -1.6e-4,-0.09769 0.0756,-0.178697 0.17312,-0.184999 z m -2.91145,0.200504 c 0.10215,4.2e-5 0.18496,0.08285 0.185,0.185002 -4e-5,0.102155 -0.0828,0.184967 -0.185,0.184999 -0.10216,-3.2e-5 -0.18496,-0.08284 -0.18501,-0.184999 5e-5,-0.102156 0.0828,-0.18496 0.18501,-0.185002 z m 30.020901,0.500745 c 0.004,0 0.0079,-1.3e-4 0.01188,0 0.102155,4e-5 0.184957,0.08284 0.184999,0.184999 -4.2e-5,0.102156 -0.08284,0.18496 -0.184999,0.185002 -0.102159,-4.2e-5 -0.184963,-0.08285 -0.185002,-0.185002 -1.67e-4,-0.09769 0.07542,-0.184999 0.173114,-0.184999 z m 4.676719,0.216006 -1.520838,0.572058 -0.283705,2.027267 h 1.416453 z"
         style="font-style:italic;font-variant:normal;font-weight:normal;font-stretch:normal;font-size:16.8621px;line-height:1.25;font-family:'Exo 2';-inkscape-font-specification:'Exo 2, Italic';font-variant-ligatures:normal;font-variant-caps:normal;font-variant-numeric:normal;font-variant-east-asian:normal;text-align:center;letter-spacing:0px;word-spacing:0px;writing-mode:lr-tb;text-anchor:middle;display:inline;fill:#ffffff;fill-opacity:1;stroke:none;stroke-width:0.161624;stroke-linecap:round;stroke-linejoin:round;stroke-miterlimit:4;stroke-dasharray:none;stroke-opacity:1"
         id="path11271-6-4-2-9-3" />
    </g>
  </g>
</svg>
